# xmcd
#
# Track frame offsets: 
#        150
#        16546
#        36558
#        57452
#        80321
#        102729
#        116841
#        136749
#        154486
#        176624
#        192169
#        212344
#        232471
#        246325
#
# Disc length: 3417 seconds
#
# Revision: 1
# Processed by: cddbd v1.5.2PL0 Copyright (c) Steve Scherf et al.
# Submitted via: ExactAudioCopy v0.99pb4
#
DISCID=c80d570e
DTITLE=Simon McBride - Since Then
DYEAR=2010
DGENRE=Blues
TTITLE0=Take My Hand
TTITLE1=Hell Waters Rising
TTITLE2=Save Me
TTITLE3=Down To The Wire
TTITLE4=Be My Baby
TTITLE5=From The Other Side
TTITLE6=The Promise
TTITLE7=Tear Down Your Soul
TTITLE8=Dead Man Walking
TTITLE9=Dancing On The Sidewalk
TTITLE10=Sweet Angel
TTITLE11=Coming Home
TTITLE12=Devils Road
TTITLE13=The Truth
EXTD=
EXTT0=
EXTT1=
EXTT2=
EXTT3=
EXTT4=
EXTT5=
EXTT6=
EXTT7=
EXTT8=
EXTT9=
EXTT10=
EXTT11=
EXTT12=
EXTT13=
PLAYORDER=
